<svg aria-hidden="true" style="position: absolute; width: 0; height: 0; overflow: hidden;" version="1.1" xmlns="http://www.w3.org/2000/svg" xmlns:xlink="http://www.w3.org/1999/xlink">
<defs>
<symbol id="icon-css" viewBox="0 0 32 32">
<path fill="#3070b7" style="fill: var(--color1, #3070b7)" d="M26.594 4.8h-21.187l1.869 21.188 8.724 2.492 8.724-2.492 1.869-21.188z"></path>
<path fill="#1f212b" style="fill: var(--color2, #1f212b)" d="M16 28.8c-0.030 0-0.059-0.004-0.088-0.012l-8.724-2.493c-0.127-0.036-0.22-0.148-0.231-0.28l-1.87-21.187c-0.008-0.089 0.022-0.178 0.083-0.244s0.146-0.104 0.236-0.104h21.188c0.090 0 0.175 0.038 0.236 0.104s0.091 0.155 0.083 0.244l-1.87 21.187c-0.012 0.132-0.103 0.243-0.231 0.28l-8.724 2.493c-0.028 0.008-0.058 0.012-0.088 0.012zM7.575 25.74l8.425 2.407 8.425-2.407 1.82-20.62h-20.489l1.82 20.62z"></path>
<path fill="#09ace3" style="fill: var(--color3, #09ace3)" d="M16 6.56v19.988l6.98-1.994 1.567-17.994z"></path>
<path fill="#fefdef" style="fill: var(--color4, #fefdef)" d="M21.671 9.785h-5.671l-0.32 1.095 0.32 1.398h3.053l-0.187 2.493h-2.867l-0.32 1.229 0.32 1.263h2.742l-0.187 2.804-2.555 0.872-0.32 1.46 0.32 1.157 4.923-1.62 0.436-7.166z"></path>
<path fill="#eeecd9" style="fill: var(--color5, #eeecd9)" d="M16 9.785v2.492h-5.546l-0.187-2.492h5.733zM13.133 14.771l0.124 2.492h2.742v-2.492h-2.867zM13.383 18.509h-2.492l0.187 3.428 4.923 1.62v-2.617l-2.555-0.872-0.062-1.558z"></path>
<path fill="#1f212b" style="fill: var(--color2, #1f212b)" d="M16 9.945c-0.088 0-0.16-0.072-0.16-0.16v-3.225c0-0.088 0.072-0.16 0.16-0.16h1.12c0.088 0 0.16 0.072 0.16 0.16s-0.072 0.16-0.16 0.16h-0.96v3.065c0 0.088-0.072 0.16-0.16 0.16z"></path>
<path fill="#1f212b" style="fill: var(--color2, #1f212b)" d="M19.36 6.72h-1.28c-0.088 0-0.16-0.072-0.16-0.16s0.072-0.16 0.16-0.16h1.28c0.088 0 0.16 0.072 0.16 0.16s-0.072 0.16-0.16 0.16z"></path>
<path fill="#1f212b" style="fill: var(--color2, #1f212b)" d="M16 26.708c-0.034 0-0.068-0.011-0.096-0.032-0.040-0.030-0.064-0.078-0.064-0.128v-2.068c0-0.088 0.072-0.16 0.16-0.16s0.16 0.072 0.16 0.16v1.856l6.67-1.906 1.542-17.71h-4.052c-0.088 0-0.16-0.072-0.16-0.16s0.072-0.16 0.16-0.16h4.227c0.045 0 0.087 0.019 0.118 0.052s0.046 0.077 0.042 0.122l-1.567 17.994c-0.006 0.066-0.052 0.122-0.115 0.14l-6.98 1.994c-0.015 0.004-0.029 0.006-0.044 0.006z"></path>
<path fill="#1f212b" style="fill: var(--color2, #1f212b)" d="M16 21.1c-0.088 0-0.16-0.072-0.16-0.16v-2.717c0-0.088 0.072-0.16 0.16-0.16s0.16 0.072 0.16 0.16v2.717c0 0.088-0.072 0.16-0.16 0.16z"></path>
<path fill="#1f212b" style="fill: var(--color2, #1f212b)" d="M16 14.931c-0.088 0-0.16-0.072-0.16-0.16v-1.532c0-0.088 0.072-0.16 0.16-0.16s0.16 0.072 0.16 0.16v1.532c0 0.088-0.072 0.16-0.16 0.16z"></path>
<path fill="#1f212b" style="fill: var(--color2, #1f212b)" d="M16 23.717c-0.017 0-0.034-0.003-0.050-0.008l-4.923-1.62c-0.062-0.020-0.106-0.077-0.11-0.143l-0.187-3.427c-0.003-0.044 0.013-0.087 0.044-0.119s0.072-0.050 0.116-0.050h2.493c0.086 0 0.156 0.068 0.16 0.154l0.058 1.448 2.399 0.819 2.403-0.82 0.168-2.527h-5.313c-0.085 0-0.156-0.067-0.16-0.152l-0.125-2.493c-0.002-0.044 0.013-0.087 0.044-0.118s0.072-0.050 0.116-0.050h5.585l0.163-2.172h-8.427c-0.084 0-0.153-0.065-0.16-0.148l-0.187-2.493c-0.003-0.044 0.012-0.088 0.043-0.121s0.073-0.051 0.117-0.051h11.404c0.044 0 0.086 0.018 0.116 0.051s0.046 0.076 0.043 0.12l-0.748 12.151c-0.004 0.066-0.047 0.122-0.11 0.142l-4.923 1.62c-0.016 0.004-0.033 0.007-0.050 0.007zM11.231 21.819l4.769 1.569 4.77-1.57 0.731-11.873h-11.061l0.163 2.173h8.451c0.044 0 0.087 0.019 0.117 0.051s0.046 0.076 0.043 0.121l-0.187 2.492c-0.006 0.084-0.076 0.148-0.16 0.148h-5.565l0.109 2.173h5.332c0.044 0 0.087 0.018 0.117 0.051s0.046 0.076 0.043 0.12l-0.187 2.804c-0.004 0.064-0.047 0.12-0.108 0.141l-2.555 0.873c-0.033 0.012-0.070 0.012-0.103 0l-2.555-0.873c-0.063-0.021-0.106-0.079-0.108-0.145l-0.056-1.404h-2.17l0.172 3.15z"></path>
</symbol>
<symbol id="icon-firebase" viewBox="0 0 32 32">
<path fill="#ff8f00" style="fill: var(--color6, #ff8f00)" d="M5.333 24.667l10.156-19.043c0.214-0.401 0.793-0.394 0.996 0.013l3.515 7.029-14.667 12z"></path>
<path fill="#ffa000" style="fill: var(--color7, #ffa000)" d="M5.333 24.661l3.697-22.799c0.097-0.597 0.898-0.726 1.178-0.19l7.125 13.656-12 9.333z"></path>
<path fill="#ff6f00" style="fill: var(--color8, #ff6f00)" d="M5.339 24.657l0.133-0.105 11.686-9.561-3.296-6.317z"></path>
<path fill="#ffc400" style="fill: var(--color9, #ffc400)" d="M5.333 24.667l17.777-17.142c0.373-0.359 0.995-0.147 1.071 0.365l2.485 16.777-10 5.829c-0.406 0.228-0.901 0.228-1.307 0l-10.026-5.829z"></path>
</symbol>
<symbol id="icon-git" viewBox="0 0 32 32">
<path fill="#f4511e" style="fill: var(--color10, #f4511e)" d="M28.133 14.733l-10.867-10.867c-0.333-0.333-0.8-0.533-1.267-0.533 0 0 0 0 0 0-0.467 0-0.933 0.2-1.267 0.533l-2.333 2.333 2.733 2.733c0.267-0.133 0.533-0.2 0.867-0.2 1.133 0 2 0.867 2 2 0 0.333-0.067 0.6-0.2 0.867l2.667 2.667c0.267-0.133 0.533-0.2 0.867-0.2 1.133 0 2 0.867 2 2s-0.867 2-2 2c-1.133 0-2-0.867-2-2 0-0.333 0.067-0.6 0.2-0.867l-2.667-2.667c-0.067 0-0.133 0.067-0.2 0.067v6.933c0.8 0.267 1.333 1 1.333 1.867 0 1.133-0.867 2-2 2s-2-0.867-2-2c0-0.867 0.533-1.6 1.333-1.867v-7c-0.8-0.267-1.333-1-1.333-1.867 0-0.333 0.067-0.6 0.2-0.867l-2.733-2.733-7.6 7.667c-0.333 0.333-0.533 0.8-0.533 1.267s0.2 0.933 0.533 1.267l10.867 10.867c0 0 0 0 0 0 0.333 0.333 0.8 0.533 1.267 0.533s0.933-0.2 1.267-0.533l10.867-10.867c0.333-0.333 0.533-0.8 0.533-1.267s-0.2-0.933-0.533-1.267z"></path>
</symbol>
<symbol id="icon-html" viewBox="0 0 32 32">
<path fill="#f59173" style="fill: var(--color11, #f59173)" d="M26.594 4.8h-21.187l1.869 21.188 8.724 2.492 8.724-2.492 1.869-21.188z"></path>
<path fill="#1f212b" style="fill: var(--color2, #1f212b)" d="M16 28.8c-0.030 0-0.059-0.004-0.088-0.012l-8.724-2.493c-0.127-0.036-0.22-0.148-0.231-0.28l-1.87-21.187c-0.008-0.089 0.022-0.178 0.083-0.244s0.146-0.104 0.236-0.104h21.188c0.090 0 0.175 0.038 0.236 0.104s0.091 0.155 0.083 0.244l-1.87 21.187c-0.012 0.132-0.103 0.243-0.231 0.28l-8.724 2.493c-0.028 0.008-0.058 0.012-0.088 0.012zM7.575 25.74l8.425 2.407 8.425-2.407 1.82-20.62h-20.489l1.82 20.62z"></path>
<path fill="#e85654" style="fill: var(--color12, #e85654)" d="M16 6.56v19.988l6.98-1.994 1.567-17.994z"></path>
<path fill="#fefdef" style="fill: var(--color4, #fefdef)" d="M16 9.785l-0.32 1.246 0.32 1.246h5.546l0.187-2.492z"></path>
<path fill="#fefdef" style="fill: var(--color4, #fefdef)" d="M16 17.263h2.742l-0.187 2.804-2.555 0.872-0.32 1.14 0.32 1.477 4.923-1.62 0.436-7.166h-5.359l-0.32 1.229z"></path>
<path fill="#eeecd9" style="fill: var(--color5, #eeecd9)" d="M16 20.94v2.617l-4.923-1.62-0.249-3.428h2.492l0.124 1.558 2.555 0.873zM12.947 12.278h3.053v-2.492h-5.671l0.436 7.478h5.235v-2.492h-2.867l-0.187-2.493z"></path>
<path fill="#1f212b" style="fill: var(--color2, #1f212b)" d="M21.624 25.101c-0.070 0-0.134-0.046-0.154-0.116-0.024-0.085 0.025-0.173 0.11-0.198l1.249-0.357 1.542-17.71h-8.212v1.12c0 0.088-0.072 0.16-0.16 0.16s-0.16-0.072-0.16-0.16v-1.28c0-0.088 0.072-0.16 0.16-0.16h8.547c0.045 0 0.087 0.019 0.118 0.052s0.046 0.077 0.042 0.122l-1.567 17.994c-0.006 0.066-0.052 0.122-0.115 0.14l-1.355 0.387c-0.015 0.004-0.030 0.006-0.044 0.006z"></path>
<path fill="#1f212b" style="fill: var(--color2, #1f212b)" d="M20.012 25.562c-0.070 0-0.134-0.046-0.154-0.116-0.024-0.085 0.025-0.173 0.11-0.198l0.638-0.182c0.086-0.024 0.173 0.025 0.198 0.11s-0.025 0.173-0.11 0.198l-0.638 0.182c-0.015 0.004-0.030 0.006-0.044 0.006z"></path>
<path fill="#1f212b" style="fill: var(--color2, #1f212b)" d="M16 26.708c-0.034 0-0.068-0.011-0.096-0.032-0.040-0.030-0.064-0.078-0.064-0.128v-2.991c0-0.088 0.072-0.16 0.16-0.16s0.16 0.072 0.16 0.16v2.779l2.819-0.805c0.085-0.024 0.174 0.025 0.198 0.11s-0.025 0.173-0.11 0.198l-3.023 0.864c-0.015 0.004-0.029 0.006-0.044 0.006z"></path>
<path fill="#1f212b" style="fill: var(--color2, #1f212b)" d="M16 21.1c-0.088 0-0.16-0.072-0.16-0.16v-2.717c0-0.088 0.072-0.16 0.16-0.16s0.16 0.072 0.16 0.16v2.717c0 0.088-0.072 0.16-0.16 0.16z"></path>
<path fill="#1f212b" style="fill: var(--color2, #1f212b)" d="M16 14.931c-0.088 0-0.16-0.072-0.16-0.16v-1.532c0-0.088 0.072-0.16 0.16-0.16s0.16 0.072 0.16 0.16v1.532c0 0.088-0.072 0.16-0.16 0.16z"></path>
<path fill="#1f212b" style="fill: var(--color2, #1f212b)" d="M16 23.717c-0.017 0-0.034-0.003-0.050-0.008l-4.923-1.62c-0.061-0.020-0.105-0.076-0.11-0.14l-0.249-3.427c-0.003-0.044 0.012-0.088 0.043-0.12s0.073-0.051 0.117-0.051h2.492c0.084 0 0.153 0.064 0.159 0.147l0.116 1.453 2.404 0.821 2.403-0.82 0.168-2.527h-7.805c-0.085 0-0.155-0.066-0.16-0.151l-0.436-7.478c-0.003-0.044 0.013-0.087 0.044-0.119s0.072-0.050 0.116-0.050h11.404c0.044 0 0.087 0.019 0.117 0.051s0.046 0.076 0.043 0.121l-0.187 2.493c-0.006 0.084-0.076 0.148-0.16 0.148h-8.427l0.163 2.172h8.077c0.044 0 0.086 0.018 0.116 0.050s0.046 0.075 0.043 0.119l-0.436 7.166c-0.004 0.066-0.047 0.122-0.11 0.142l-4.923 1.62c-0.016 0.006-0.033 0.009-0.050 0.009zM11.229 21.819l4.771 1.57 4.77-1.57 0.42-6.888h-8.056c-0.084 0-0.153-0.065-0.16-0.148l-0.187-2.492c-0.003-0.044 0.012-0.088 0.043-0.121s0.073-0.051 0.117-0.051h8.451l0.163-2.173h-11.061l0.418 7.158h7.825c0.044 0 0.087 0.018 0.117 0.051s0.046 0.076 0.043 0.12l-0.187 2.804c-0.004 0.064-0.047 0.12-0.108 0.141l-2.555 0.873c-0.033 0.012-0.070 0.012-0.103 0l-2.555-0.873c-0.060-0.020-0.103-0.075-0.108-0.139l-0.113-1.411h-2.172l0.229 3.149z"></path>
<path fill="#1f212b" style="fill: var(--color2, #1f212b)" d="M16 9.888c-0.088 0-0.16-0.072-0.16-0.16v-0.928c0-0.088 0.072-0.16 0.16-0.16s0.16 0.072 0.16 0.16v0.928c0 0.088-0.072 0.16-0.16 0.16z"></path>
</symbol>
<symbol id="icon-javascript" viewBox="0 0 32 32">
<path fill="#ffd600" style="fill: var(--color13, #ffd600)" d="M4 28v-24h24v24h-24z"></path>
<path fill="#000001" style="fill: var(--color14, #000001)" d="M19.692 21.965c0.461 0.749 0.963 1.467 2.025 1.467 0.892 0 1.36-0.443 1.36-1.057 0-0.734-0.484-0.995-1.465-1.422l-0.538-0.229c-1.553-0.659-2.585-1.484-2.585-3.227 0-1.607 1.23-2.829 3.152-2.829 1.369 0 2.352 0.474 3.061 1.715l-1.676 1.071c-0.369-0.659-0.767-0.918-1.385-0.918-0.631 0-1.030 0.398-1.030 0.918 0 0.643 0.4 0.903 1.323 1.301l0.538 0.229c1.83 0.779 2.862 1.575 2.862 3.365 0 1.928-1.523 2.985-3.567 2.985-1.999 0-3.135-1.003-3.767-2.245l1.692-1.123zM11.968 22.019c0.337 0.604 0.85 1.069 1.587 1.069 0.705 0 1.111-0.279 1.111-1.362v-7.059h2.222v7.401c0 2.245-1.302 3.266-3.203 3.266-1.718 0-2.958-1.164-3.463-2.245l1.746-1.069z"></path>
</symbol>
<symbol id="icon-node" viewBox="0 0 32 32">
<path fill="#21a366" style="fill: var(--color15, #21a366)" d="M16.005 30.279c-0.383 0-0.762-0.1-1.097-0.293l-3.493-2.069c-0.522-0.292-0.267-0.395-0.095-0.455 0.696-0.243 0.837-0.299 1.579-0.721 0.078-0.045 0.18-0.029 0.26 0.019l2.684 1.593c0.097 0.053 0.235 0.053 0.324 0l10.465-6.041c0.097-0.055 0.16-0.167 0.16-0.283v-12.075c0-0.121-0.063-0.228-0.162-0.288l-10.46-6.036c-0.097-0.057-0.225-0.057-0.322 0l-10.459 6.035c-0.101 0.057-0.166 0.17-0.166 0.285v12.076c0 0.115 0.063 0.225 0.163 0.28l2.866 1.655c1.556 0.778 2.507-0.139 2.507-1.061v-11.918c0-0.17 0.133-0.301 0.304-0.301h1.325c0.165 0 0.301 0.131 0.301 0.301v11.924c0 2.075-1.131 3.267-3.099 3.267-0.605 0-1.082 0-2.413-0.655l-2.745-1.582c-0.679-0.393-1.098-1.127-1.098-1.91v-12.076c0-0.786 0.419-1.519 1.097-1.907l10.476-6.043c0.663-0.375 1.543-0.375 2.201 0l10.463 6.046c0.675 0.39 1.097 1.121 1.097 1.907v12.076c0 0.783-0.422 1.514-1.097 1.907l-10.463 6.043c-0.335 0.194-0.715 0.293-1.103 0.293z"></path>
<path fill="#21a366" style="fill: var(--color15, #21a366)" d="M19.237 21.958c-4.579 0-5.539-2.102-5.539-3.865 0-0.167 0.135-0.301 0.303-0.301h1.352c0.149 0 0.275 0.109 0.299 0.256 0.204 1.377 0.812 2.072 3.581 2.072 2.205 0 3.143-0.498 3.143-1.668 0-0.673-0.267-1.173-3.693-1.509-2.866-0.283-4.637-0.914-4.637-3.206 0-2.111 1.781-3.369 4.765-3.369 3.351 0 5.011 1.163 5.221 3.662 0.008 0.087-0.023 0.17-0.081 0.233-0.057 0.060-0.139 0.097-0.223 0.097h-1.359c-0.141 0-0.265-0.099-0.293-0.236-0.327-1.449-1.119-1.912-3.269-1.912-2.407 0-2.687 0.838-2.687 1.467 0 0.762 0.33 0.985 3.578 1.415 3.217 0.427 4.744 1.029 4.744 3.29 0 2.279-1.902 3.586-5.218 3.586z"></path>
</symbol>
<symbol id="icon-react" viewBox="0 0 32 32">
<path fill="#39c1d7" style="fill: var(--color16, #39c1d7)" d="M18.24 16c0 1.237-1.003 2.24-2.24 2.24s-2.24-1.003-2.24-2.24c0-1.237 1.003-2.24 2.24-2.24s2.24 1.003 2.24 2.24z"></path>
<path fill="#1f212b" style="fill: var(--color2, #1f212b)" d="M16 18.56c-1.412 0-2.56-1.148-2.56-2.56s1.148-2.56 2.56-2.56 2.56 1.148 2.56 2.56-1.148 2.56-2.56 2.56zM16 14.080c-1.059 0-1.92 0.861-1.92 1.92s0.861 1.92 1.92 1.92 1.92-0.861 1.92-1.92-0.861-1.92-1.92-1.92z"></path>
<path fill="#39c1d7" style="fill: var(--color16, #39c1d7)" d="M28.32 16c0-1.72-2.072-3.209-5.286-4.095 0.826-3.231 0.572-5.771-0.905-6.633-0.582-0.34-1.289-0.402-2.1-0.185-1.222 0.327-2.622 1.283-4.030 2.688-1.408-1.404-2.808-2.36-4.030-2.688-0.811-0.217-1.517-0.155-2.1 0.185-1.476 0.862-1.731 3.402-0.905 6.633-3.214 0.886-5.286 2.375-5.286 4.095s2.072 3.209 5.286 4.096c-0.826 3.231-0.572 5.771 0.905 6.633 0.356 0.208 0.758 0.312 1.202 0.312 0.283 0 0.582-0.042 0.898-0.127 1.222-0.327 2.622-1.283 4.030-2.688 1.408 1.404 2.808 2.36 4.030 2.688 0.316 0.084 0.615 0.127 0.898 0.127 0.444 0 0.846-0.104 1.202-0.312 1.476-0.862 1.731-3.403 0.905-6.633 3.214-0.886 5.286-2.375 5.286-4.096zM20.278 6.013c0.232-0.062 0.447-0.093 0.645-0.093 0.275 0 0.517 0.060 0.722 0.18 0.989 0.578 1.191 2.694 0.454 5.572-1.015-0.228-2.123-0.4-3.3-0.507-0.691-0.996-1.41-1.903-2.134-2.697 1.286-1.289 2.547-2.169 3.612-2.455zM19.442 18.016c-0.377 0.661-0.774 1.294-1.182 1.9-0.723 0.054-1.477 0.084-2.26 0.084s-1.537-0.030-2.26-0.084c-0.407-0.606-0.804-1.239-1.182-1.9-0.39-0.684-0.74-1.357-1.054-2.015 0.314-0.659 0.664-1.332 1.054-2.016 0.378-0.661 0.774-1.295 1.182-1.901 0.723-0.054 1.476-0.084 2.259-0.084s1.536 0.030 2.26 0.084c0.407 0.606 0.804 1.24 1.182 1.901 0.39 0.684 0.74 1.357 1.054 2.016-0.314 0.659-0.664 1.332-1.054 2.015zM21.006 17.134c0.333 0.788 0.608 1.546 0.831 2.266-0.728 0.162-1.514 0.298-2.353 0.398 0.269-0.424 0.535-0.858 0.791-1.307 0.26-0.454 0.502-0.907 0.731-1.357zM16 22.834c-0.524-0.579-1.046-1.22-1.556-1.913 0.509 0.025 1.028 0.039 1.556 0.039s1.047-0.014 1.556-0.039c-0.51 0.693-1.033 1.334-1.556 1.913zM12.516 19.798c-0.839-0.1-1.625-0.236-2.353-0.398 0.223-0.721 0.498-1.479 0.831-2.266 0.229 0.45 0.472 0.903 0.731 1.357 0.257 0.449 0.522 0.883 0.791 1.307zM10.994 14.866c-0.333-0.788-0.609-1.546-0.831-2.267 0.728-0.162 1.514-0.298 2.354-0.398-0.27 0.424-0.535 0.859-0.791 1.308-0.26 0.454-0.502 0.907-0.731 1.357zM16 9.166c0.524 0.579 1.046 1.22 1.556 1.913-0.509-0.025-1.028-0.039-1.556-0.039s-1.047 0.014-1.556 0.039c0.51-0.693 1.033-1.334 1.556-1.913zM20.275 13.509c-0.256-0.449-0.522-0.883-0.791-1.308 0.839 0.1 1.625 0.236 2.354 0.398-0.223 0.721-0.498 1.479-0.831 2.267-0.229-0.45-0.472-0.903-0.731-1.357zM10.355 6.1c0.205-0.12 0.447-0.18 0.722-0.18 0.198 0 0.413 0.031 0.645 0.093 1.065 0.285 2.327 1.166 3.612 2.454-0.724 0.794-1.443 1.701-2.134 2.697-1.177 0.106-2.285 0.278-3.3 0.507-0.737-2.877-0.535-4.994 0.454-5.571zM4.64 16c0-1.151 1.728-2.381 4.587-3.168 0.31 1.011 0.717 2.076 1.218 3.168-0.501 1.093-0.908 2.157-1.218 3.168-2.859-0.788-4.587-2.018-4.587-3.168zM11.722 25.987c-0.555 0.148-1.014 0.119-1.367-0.087-0.989-0.578-1.191-2.694-0.454-5.572 1.015 0.228 2.123 0.4 3.3 0.507 0.691 0.996 1.41 1.903 2.134 2.698-1.285 1.288-2.547 2.169-3.612 2.454zM21.645 25.9c-0.353 0.206-0.812 0.235-1.367 0.087-1.065-0.285-2.327-1.166-3.612-2.454 0.724-0.794 1.443-1.701 2.134-2.698 1.177-0.106 2.285-0.278 3.3-0.507 0.737 2.877 0.535 4.994-0.454 5.572zM22.773 19.168c-0.31-1.011-0.717-2.076-1.218-3.168 0.501-1.093 0.908-2.158 1.218-3.168 2.859 0.788 4.587 2.018 4.587 3.168s-1.728 2.381-4.587 3.168z"></path>
<path fill="#1f212b" style="fill: var(--color2, #1f212b)" d="M11.070 27.201c-0.471 0-0.901-0.112-1.28-0.334-1.482-0.866-1.851-3.288-1.017-6.66-3.341-0.95-5.253-2.479-5.253-4.207s1.912-3.257 5.253-4.207c-0.833-3.371-0.465-5.794 1.017-6.66 0.62-0.363 1.367-0.431 2.222-0.202 1.19 0.319 2.566 1.222 3.988 2.617 1.422-1.395 2.799-2.299 3.988-2.617 0.854-0.228 1.602-0.161 2.222 0.202 1.482 0.866 1.85 3.288 1.017 6.66 3.341 0.95 5.253 2.479 5.253 4.207s-1.912 3.257-5.253 4.207c0.833 3.371 0.465 5.794-1.017 6.66-0.617 0.36-1.372 0.429-2.222 0.202-1.19-0.319-2.567-1.222-3.988-2.617-1.422 1.395-2.798 2.299-3.988 2.617-0.327 0.088-0.644 0.132-0.94 0.132-0.001 0-0.001 0-0.002 0zM11.073 5.12c-0.416 0-0.792 0.097-1.122 0.29-1.352 0.789-1.662 3.203-0.83 6.455 0.021 0.084-0.028 0.171-0.113 0.194-3.236 0.892-5.168 2.366-5.168 3.941s1.932 3.049 5.168 3.941c0.084 0.023 0.134 0.109 0.113 0.194-0.832 3.253-0.522 5.666 0.83 6.455 0.33 0.192 0.706 0.29 1.119 0.29 0.001 0 0.001 0 0.002 0 0.268 0 0.556-0.041 0.857-0.121 1.167-0.313 2.536-1.228 3.958-2.646 0.062-0.062 0.164-0.062 0.226 0 1.422 1.419 2.791 2.333 3.958 2.646 0.766 0.204 1.435 0.148 1.978-0.169 1.352-0.789 1.662-3.203 0.83-6.455-0.021-0.084 0.028-0.171 0.113-0.194 3.236-0.892 5.168-2.366 5.168-3.941s-1.932-3.049-5.168-3.941c-0.084-0.023-0.134-0.109-0.113-0.194 0.832-3.253 0.521-5.666-0.83-6.455-0.544-0.318-1.209-0.374-1.978-0.169-1.167 0.313-2.536 1.228-3.958 2.646-0.062 0.062-0.164 0.062-0.226 0-1.422-1.419-2.791-2.334-3.958-2.646-0.301-0.081-0.587-0.121-0.855-0.121zM20.924 26.24c-0.212 0-0.441-0.033-0.687-0.098-1.066-0.286-2.34-1.148-3.684-2.496-0.060-0.060-0.062-0.158-0.005-0.221 0.725-0.795 1.438-1.697 2.121-2.681 0.027-0.039 0.070-0.064 0.117-0.068 1.156-0.104 2.259-0.274 3.28-0.503 0.084-0.019 0.169 0.032 0.19 0.116 0.748 2.919 0.545 5.123-0.529 5.749v0c-0.23 0.134-0.499 0.202-0.803 0.202zM16.887 23.527c1.264 1.246 2.449 2.042 3.433 2.306 0.512 0.137 0.931 0.113 1.245-0.070v0c0.914-0.534 1.074-2.583 0.418-5.244-0.969 0.211-2.009 0.369-3.094 0.469-0.645 0.925-1.318 1.779-2.002 2.539zM11.076 26.24c-0.304 0-0.572-0.067-0.803-0.201-1.074-0.627-1.276-2.83-0.529-5.75 0.021-0.084 0.107-0.134 0.19-0.116 1.020 0.23 2.124 0.399 3.28 0.503 0.047 0.004 0.090 0.029 0.117 0.068 0.683 0.984 1.396 1.886 2.121 2.681 0.058 0.063 0.055 0.16-0.005 0.221-1.345 1.347-2.619 2.21-3.684 2.496v0c-0.246 0.065-0.475 0.098-0.687 0.098zM10.017 20.518c-0.656 2.66-0.496 4.71 0.418 5.244 0.314 0.183 0.733 0.207 1.245 0.070v0c0.984-0.264 2.168-1.060 3.433-2.306-0.684-0.761-1.356-1.614-2.001-2.539-1.086-0.101-2.126-0.259-3.095-0.469zM16 22.994c-0.045 0-0.088-0.019-0.119-0.053-0.532-0.588-1.059-1.236-1.567-1.926-0.036-0.050-0.041-0.116-0.012-0.171s0.084-0.088 0.149-0.084c1.058 0.052 2.040 0.052 3.098 0 0.064-0.004 0.12 0.030 0.149 0.084s0.025 0.121-0.012 0.171c-0.508 0.689-1.035 1.337-1.567 1.926-0.030 0.034-0.074 0.053-0.119 0.053zM14.773 21.096c0.4 0.53 0.812 1.032 1.227 1.499 0.415-0.467 0.826-0.969 1.227-1.499-0.836 0.032-1.617 0.032-2.453 0zM16 20.16c-0.758 0-1.522-0.028-2.272-0.084-0.049-0.004-0.093-0.029-0.121-0.070-0.428-0.636-0.828-1.279-1.188-1.91-0.378-0.662-0.734-1.343-1.059-2.026-0.021-0.044-0.021-0.094 0-0.138 0.325-0.683 0.682-1.364 1.059-2.026 0.36-0.63 0.76-1.273 1.188-1.911 0.027-0.041 0.072-0.067 0.121-0.070 1.499-0.112 3.044-0.112 4.543 0 0.049 0.004 0.093 0.029 0.121 0.070 0.428 0.637 0.828 1.28 1.188 1.911 0.378 0.662 0.734 1.343 1.059 2.026 0.021 0.044 0.021 0.094 0 0.138-0.325 0.683-0.682 1.364-1.059 2.026v0c-0.36 0.631-0.76 1.274-1.188 1.91-0.027 0.041-0.072 0.067-0.121 0.070-0.749 0.056-1.514 0.084-2.272 0.084zM13.83 19.762c1.433 0.103 2.907 0.103 4.34 0 0.407-0.609 0.788-1.223 1.132-1.826 0.361-0.633 0.702-1.284 1.015-1.936-0.313-0.652-0.654-1.304-1.015-1.936-0.344-0.603-0.725-1.217-1.133-1.827-1.433-0.103-2.907-0.103-4.34 0-0.408 0.61-0.789 1.224-1.133 1.827-0.361 0.633-0.702 1.284-1.015 1.936 0.313 0.652 0.654 1.304 1.015 1.936 0.345 0.604 0.726 1.217 1.133 1.826zM19.484 19.959c-0.054 0-0.106-0.028-0.135-0.075-0.033-0.052-0.033-0.119 0-0.171 0.297-0.468 0.555-0.893 0.787-1.301 0.244-0.428 0.489-0.883 0.727-1.35 0.028-0.055 0.087-0.088 0.148-0.087 0.062 0.002 0.117 0.040 0.142 0.098 0.325 0.768 0.606 1.535 0.836 2.281 0.013 0.043 0.008 0.089-0.014 0.127s-0.060 0.066-0.104 0.076c-0.752 0.168-1.549 0.303-2.369 0.401-0.006 0.001-0.013 0.001-0.019 0.001zM20.991 17.514c-0.19 0.364-0.383 0.718-0.576 1.057-0.187 0.327-0.389 0.665-0.614 1.027 0.63-0.084 1.245-0.19 1.833-0.316-0.185-0.58-0.4-1.173-0.642-1.768zM12.516 19.959c-0.006 0-0.013-0-0.019-0.001-0.82-0.098-1.617-0.233-2.369-0.401-0.044-0.010-0.081-0.037-0.104-0.076s-0.028-0.085-0.014-0.127c0.23-0.746 0.512-1.514 0.836-2.281 0.024-0.057 0.080-0.095 0.142-0.098 0.058-0.006 0.12 0.032 0.148 0.087 0.238 0.468 0.483 0.922 0.727 1.35 0.233 0.408 0.491 0.833 0.787 1.301 0.033 0.052 0.033 0.119 0 0.171-0.029 0.047-0.081 0.075-0.135 0.075zM10.368 19.282c0.588 0.126 1.202 0.232 1.833 0.316-0.226-0.362-0.428-0.7-0.614-1.027-0.193-0.338-0.386-0.693-0.576-1.057-0.243 0.595-0.458 1.187-0.642 1.768zM22.773 19.328c-0.069 0-0.132-0.044-0.153-0.113-0.312-1.017-0.719-2.076-1.21-3.148-0.020-0.042-0.020-0.091 0-0.133 0.491-1.072 0.898-2.131 1.211-3.149 0.026-0.083 0.113-0.129 0.196-0.107 2.902 0.8 4.704 2.073 4.704 3.323s-1.803 2.523-4.705 3.323c-0.014 0.004-0.028 0.006-0.042 0.006zM21.731 16c0.46 1.010 0.846 2.009 1.148 2.972 2.63-0.75 4.321-1.909 4.321-2.972s-1.691-2.222-4.321-2.972c-0.303 0.964-0.689 1.963-1.148 2.972zM9.227 19.328c-0.014 0-0.028-0.002-0.043-0.006-2.902-0.8-4.705-2.073-4.705-3.323s1.803-2.523 4.705-3.323c0.083-0.022 0.17 0.024 0.196 0.107 0.312 1.018 0.72 2.077 1.211 3.149 0.020 0.042 0.020 0.091 0 0.133-0.491 1.072-0.898 2.131-1.21 3.148-0.021 0.069-0.084 0.113-0.153 0.113zM9.121 13.028c-2.63 0.75-4.321 1.909-4.321 2.972s1.691 2.222 4.321 2.972c0.303-0.964 0.689-1.962 1.148-2.972-0.459-1.009-0.845-2.008-1.148-2.972zM21.006 15.026c-0.060 0-0.115-0.034-0.143-0.087-0.242-0.476-0.48-0.918-0.727-1.35v0c-0.232-0.407-0.49-0.833-0.788-1.301-0.033-0.052-0.033-0.119-0-0.171s0.092-0.081 0.155-0.074c0.82 0.098 1.617 0.233 2.369 0.401 0.044 0.010 0.081 0.037 0.104 0.076s0.028 0.085 0.014 0.127c-0.231 0.748-0.512 1.515-0.836 2.282-0.024 0.057-0.080 0.095-0.142 0.098-0.003 0-0.004 0-0.006 0zM20.414 13.43c0.196 0.342 0.386 0.691 0.576 1.057 0.242-0.594 0.457-1.187 0.642-1.768-0.588-0.126-1.202-0.232-1.833-0.316 0.227 0.362 0.429 0.7 0.615 1.027v0zM10.994 15.026c-0.002 0-0.004 0-0.006 0-0.062-0.002-0.117-0.040-0.142-0.098-0.324-0.767-0.606-1.534-0.836-2.282-0.013-0.043-0.008-0.089 0.014-0.127s0.060-0.066 0.104-0.076c0.752-0.168 1.549-0.303 2.369-0.401 0.062-0.006 0.122 0.021 0.155 0.074s0.033 0.119-0 0.171c-0.298 0.468-0.555 0.894-0.788 1.301-0.247 0.432-0.485 0.874-0.727 1.35-0.028 0.053-0.083 0.087-0.143 0.087zM10.368 12.718c0.185 0.581 0.4 1.174 0.642 1.768 0.191-0.366 0.381-0.714 0.576-1.057 0.187-0.327 0.389-0.665 0.615-1.027-0.63 0.084-1.245 0.19-1.833 0.316zM22.1 11.832c-0.012 0-0.023-0.001-0.035-0.004-1.020-0.23-2.124-0.399-3.28-0.503-0.047-0.004-0.090-0.029-0.117-0.068-0.683-0.984-1.396-1.886-2.121-2.681-0.058-0.063-0.055-0.16 0.005-0.221 1.344-1.347 2.619-2.211 3.684-2.496v0c0.598-0.16 1.1-0.124 1.489 0.103 1.074 0.627 1.276 2.83 0.529 5.75-0.019 0.072-0.083 0.12-0.155 0.12zM18.888 11.012c1.086 0.101 2.126 0.259 3.095 0.469 0.656-2.66 0.496-4.71-0.418-5.244-0.313-0.183-0.733-0.207-1.245-0.070-0.984 0.264-2.169 1.060-3.433 2.306 0.684 0.76 1.356 1.613 2.002 2.539zM9.9 11.832c-0.072 0-0.136-0.048-0.155-0.12-0.748-2.919-0.545-5.122 0.529-5.749 0 0 0 0 0 0 0.389-0.227 0.892-0.263 1.489-0.103 1.066 0.286 2.34 1.149 3.684 2.496 0.060 0.060 0.062 0.158 0.005 0.221-0.724 0.795-1.438 1.697-2.121 2.681-0.027 0.039-0.070 0.064-0.117 0.068-1.156 0.104-2.26 0.274-3.28 0.503-0.012 0.003-0.023 0.004-0.035 0.004zM10.435 6.238c-0.914 0.534-1.074 2.584-0.418 5.244 0.969-0.211 2.009-0.369 3.095-0.469 0.645-0.926 1.318-1.779 2.001-2.539-1.264-1.246-2.449-2.042-3.433-2.306-0.51-0.136-0.93-0.112-1.245 0.071v0zM17.556 11.239c-0.003 0-0.005 0-0.008 0-1.058-0.052-2.039-0.052-3.097 0-0.066 0.002-0.12-0.030-0.149-0.084s-0.025-0.121 0.012-0.171c0.508-0.69 1.035-1.338 1.567-1.926 0.061-0.067 0.177-0.067 0.237 0 0.532 0.588 1.059 1.236 1.567 1.926 0.036 0.050 0.041 0.116 0.012 0.171-0.028 0.052-0.083 0.084-0.141 0.084zM16 10.88c0.397 0 0.809 0.008 1.227 0.025-0.401-0.53-0.812-1.033-1.227-1.499-0.414 0.466-0.826 0.969-1.227 1.499 0.418-0.016 0.829-0.025 1.227-0.025z"></path>
</symbol>
<symbol id="icon-redux" viewBox="0 0 32 32">
<path fill="#7e57c2" style="fill: var(--color17, #7e57c2)" d="M15.333 2.667c-4.411 0-8 4.847-8 10.803 0 3.223 1.055 6.113 2.719 8.091-0.032 0.142-0.052 0.288-0.052 0.439 0 1.105 0.895 2 2 2s2-0.895 2-2-0.895-2-2-2c-0.21 0-0.408 0.041-0.598 0.101-1.265-1.614-2.069-3.985-2.069-6.631 0-4.854 2.691-8.803 6-8.803 2.558 0 4.741 2.365 5.603 5.679 0.748 0.231 1.491 0.521 2.22 0.872-0.77-4.879-3.983-8.551-7.823-8.551z"></path>
<path fill="#7e57c2" style="fill: var(--color17, #7e57c2)" d="M23.671 13.389c-2.631-1.595-5.583-2.295-8.121-1.973-0.367-0.454-0.921-0.75-1.55-0.75-1.105 0-2 0.895-2 2s0.895 2 2 2c0.848 0 1.569-0.53 1.859-1.275 2.079-0.253 4.541 0.354 6.775 1.709 4.269 2.587 6.447 7.046 4.855 9.941-0.551 1.003-1.524 1.715-2.812 2.060-1.524 0.407-3.338 0.263-5.151-0.352-0.559 0.515-1.166 0.999-1.817 1.445 1.701 0.745 3.464 1.136 5.113 1.136 0.827 0 1.625-0.098 2.373-0.298 1.827-0.489 3.227-1.536 4.047-3.028 2.102-3.821-0.397-9.48-5.571-12.615z"></path>
<path fill="#7e57c2" style="fill: var(--color17, #7e57c2)" d="M23.333 19.328c0-1.101-0.895-1.995-2-1.995s-2 0.893-2 1.995c0 0.446 0.152 0.854 0.4 1.186-0.853 1.868-2.496 3.711-4.708 5.052-2.577 1.563-5.457 2.135-7.703 1.535-1.288-0.345-2.261-1.057-2.812-2.060-1.135-2.063-0.347-4.917 1.74-7.325-0.215-0.763-0.375-1.56-0.471-2.383-3.38 3.198-4.739 7.549-3.021 10.673 0.82 1.492 2.22 2.539 4.047 3.028 0.747 0.2 1.545 0.298 2.373 0.298 2.231 0 4.671-0.712 6.884-2.053 2.557-1.55 4.455-3.718 5.473-5.975 1.009-0.102 1.799-0.942 1.799-1.975z"></path>
</symbol>
<symbol id="icon-sass" viewBox="0 0 32 32">
<path fill="#f06292" style="fill: var(--color18, #f06292)" d="M26.578 17.304c-1.025 0.005-1.913 0.251-2.657 0.619-0.272-0.543-0.548-1.021-0.594-1.377-0.054-0.415-0.117-0.663-0.051-1.157s0.351-1.194 0.347-1.247c-0.004-0.053-0.064-0.304-0.655-0.309s-1.097 0.114-1.157 0.27-0.173 0.507-0.244 0.874c-0.103 0.536-1.181 2.449-1.792 3.449-0.2-0.391-0.37-0.735-0.405-1.007-0.054-0.415-0.117-0.663-0.051-1.157s0.351-1.194 0.347-1.247c-0.004-0.053-0.064-0.304-0.655-0.309s-1.097 0.114-1.157 0.27-0.123 0.521-0.244 0.874c-0.121 0.353-1.553 3.543-1.928 4.37-0.191 0.421-0.357 0.76-0.475 0.991-0.001-0.001-0.001-0.001-0.001-0.001s-0.007 0.015-0.019 0.041c-0.101 0.197-0.16 0.305-0.16 0.305s0.001 0.001 0.002 0.004c-0.080 0.145-0.165 0.279-0.207 0.279-0.029 0-0.089-0.385 0.013-0.913 0.213-1.107 0.725-2.832 0.72-2.892-0.003-0.031 0.095-0.331-0.334-0.489-0.417-0.153-0.566 0.102-0.604 0.103-0.037 0.001-0.064 0.090-0.064 0.090s0.465-1.941-0.887-1.941c-0.845 0-2.016 0.925-2.593 1.763-0.364 0.199-1.143 0.624-1.969 1.078-0.317 0.175-0.641 0.353-0.949 0.522-0.021-0.023-0.042-0.046-0.063-0.069-1.639-1.749-4.669-2.985-4.541-5.337 0.047-0.855 0.344-3.105 5.822-5.835 4.487-2.236 8.080-1.621 8.701-0.257 0.887 1.949-1.92 5.569-6.58 6.092-1.775 0.199-2.711-0.489-2.943-0.745-0.245-0.27-0.281-0.282-0.373-0.231-0.149 0.083-0.055 0.321 0 0.463 0.139 0.362 0.71 1.004 1.683 1.324 0.857 0.281 2.941 0.435 5.462-0.54 2.824-1.092 5.029-4.131 4.381-6.67-0.659-2.583-4.941-3.432-8.995-1.992-2.415 0.857-5.027 2.203-6.905 3.959-2.233 2.088-2.589 3.906-2.442 4.665 0.521 2.699 4.241 4.456 5.73 5.758-0.073 0.041-0.143 0.079-0.205 0.113-0.747 0.369-3.582 1.853-4.291 3.421-0.805 1.778 0.128 3.054 0.745 3.226 1.913 0.532 3.875-0.425 4.931-1.999s0.926-3.621 0.442-4.556c-0.006-0.011-0.013-0.023-0.019-0.035 0.193-0.114 0.389-0.23 0.584-0.345 0.38-0.223 0.753-0.431 1.077-0.607-0.181 0.496-0.314 1.091-0.383 1.951-0.081 1.009 0.333 2.314 0.874 2.827 0.239 0.226 0.525 0.231 0.707 0.231 0.63 0 0.917-0.524 1.234-1.144 0.388-0.76 0.733-1.645 0.733-1.645s-0.432 2.391 0.745 2.391c0.429 0 0.861-0.557 1.053-0.84 0.001 0.003 0.001 0.005 0.001 0.005s0.011-0.019 0.033-0.055c0.045-0.068 0.070-0.111 0.070-0.111s0.001-0.005 0.002-0.013c0.173-0.299 0.555-0.982 1.129-2.108 0.741-1.455 1.452-3.277 1.452-3.277s0.066 0.445 0.283 1.183c0.127 0.433 0.398 0.913 0.612 1.373-0.172 0.239-0.277 0.375-0.277 0.375s0.001 0.003 0.003 0.007c-0.137 0.183-0.291 0.379-0.453 0.571-0.585 0.697-1.282 1.493-1.375 1.722-0.11 0.271-0.084 0.469 0.129 0.63 0.155 0.117 0.431 0.135 0.72 0.116 0.526-0.035 0.895-0.166 1.078-0.245 0.285-0.101 0.616-0.259 0.927-0.487 0.574-0.422 0.92-1.025 0.887-1.825-0.019-0.441-0.159-0.877-0.337-1.289 0.052-0.075 0.104-0.151 0.157-0.227 0.905-1.323 1.607-2.776 1.607-2.776s0.066 0.445 0.283 1.183c0.109 0.373 0.326 0.78 0.521 1.179-0.851 0.691-1.378 1.495-1.561 2.021-0.339 0.975-0.073 1.416 0.424 1.517 0.225 0.045 0.544-0.058 0.783-0.159 0.298-0.099 0.656-0.263 0.991-0.509 0.574-0.422 1.126-1.013 1.093-1.812-0.015-0.364-0.114-0.725-0.248-1.072 0.721-0.301 1.655-0.467 2.844-0.329 2.551 0.298 3.051 1.891 2.956 2.557s-0.631 1.033-0.81 1.144c-0.179 0.111-0.233 0.149-0.219 0.231 0.022 0.119 0.105 0.115 0.257 0.089 0.21-0.035 1.339-0.542 1.388-1.773 0.061-1.564-1.436-3.28-4.087-3.266zM6.913 23.933c-0.845 0.922-2.025 1.27-2.532 0.977-0.547-0.317-0.33-1.674 0.707-2.653 0.632-0.596 1.448-1.145 1.989-1.483 0.123-0.074 0.304-0.183 0.524-0.315 0.037-0.021 0.057-0.032 0.057-0.032l-0.001-0.001c0.043-0.025 0.086-0.051 0.131-0.079 0.378 1.393 0.012 2.619-0.875 3.586zM13.070 19.749c-0.294 0.717-0.91 2.553-1.285 2.455-0.322-0.085-0.518-1.48-0.064-2.853 0.228-0.691 0.716-1.517 1.003-1.838 0.461-0.516 0.969-0.685 1.093-0.475 0.157 0.267-0.561 2.262-0.746 2.712zM18.156 22.175c-0.125 0.065-0.239 0.106-0.292 0.075-0.039-0.023 0.051-0.109 0.051-0.109s0.636-0.685 0.887-0.996c0.146-0.181 0.315-0.397 0.499-0.637 0.001 0.024 0.002 0.048 0.002 0.071-0.001 0.82-0.793 1.373-1.147 1.596zM22.074 21.282c-0.093-0.066-0.077-0.28 0.229-0.947 0.12-0.262 0.395-0.703 0.871-1.124 0.055 0.173 0.089 0.339 0.088 0.494-0.006 1.032-0.742 1.417-1.187 1.577z"></path>
</symbol>
<symbol id="icon-github" viewBox="0 0 33 32">
<path d="M16.405 0c-9.064 0-16.405 7.341-16.405 16.405 0 7.259 4.696 13.389 11.217 15.563 0.82 0.144 1.127-0.348 1.127-0.779 0-0.389-0.020-1.681-0.020-3.055-4.121 0.759-5.188-1.005-5.516-1.928-0.184-0.472-0.984-1.928-1.681-2.317-0.573-0.307-1.395-1.067-0.021-1.087 1.293-0.020 2.215 1.189 2.523 1.681 1.476 2.48 3.835 1.784 4.779 1.353 0.143-1.067 0.573-1.784 1.045-2.195-3.651-0.409-7.464-1.824-7.464-8.099 0-1.784 0.636-3.261 1.68-4.409-0.163-0.411-0.737-2.092 0.165-4.347 0 0 1.373-0.431 4.511 1.68 1.313-0.368 2.707-0.553 4.101-0.553s2.789 0.185 4.101 0.555c3.137-2.133 4.512-1.681 4.512-1.681 0.901 2.255 0.328 3.936 0.164 4.347 1.045 1.148 1.68 2.604 1.68 4.409 0 6.295-3.833 7.689-7.484 8.099 0.595 0.513 1.107 1.497 1.107 3.036 0 2.193-0.020 3.957-0.020 4.511 0 0.431 0.308 0.944 1.128 0.779 6.551-2.26 11.173-8.371 11.176-15.562v-0c0-9.064-7.341-16.405-16.404-16.405z"></path>
</symbol>
<symbol id="icon-linkedin" viewBox="0 0 33 32">
<path d="M7.401 4.405c-1.52 0-2.756 1.235-2.756 2.752 0 1.52 1.237 2.755 2.756 2.755 1.484-0.048 2.669-1.262 2.669-2.753s-1.185-2.706-2.665-2.753l-0.004-0zM5.023 11.997v15.271h4.749l0.001-15.271h-4.751zM12.753 11.997v15.269l4.739 0.003 0.003-7.557c0-1.939 0.337-3.921 2.843-3.921 2.468 0 2.468 2.34 2.468 4.048v7.428l4.745-0.001v-8.373c0-3.779-0.689-7.276-5.693-7.276-2.351 0-3.888 1.329-4.491 2.467h-0.067v-2.087h-4.547zM29.913 32h-27.271c-1.301 0-2.36-1.036-2.36-2.309v-27.383c0-1.273 1.059-2.308 2.36-2.308h27.271c1.307 0 2.369 1.035 2.369 2.307v27.384c0 1.273-1.063 2.309-2.369 2.309z"></path>
</symbol>
<symbol id="icon-vite" viewBox="0 0 48 48">
<path fill="#9575cd" d="M44.86,9.976L25.023,45.448c-0.41,0.732-1.462,0.737-1.878,0.008L2.915,9.979 C2.462,9.185,3.141,8.223,4.041,8.384l19.859,3.55c0.127,0.023,0.256,0.022,0.383-0.001l19.443-3.544 C44.623,8.225,45.305,9.18,44.86,9.976z"/><path fill="#fbc02d" d="M33.574,3.01L19.019,5.862c-0.239,0.047-0.416,0.25-0.431,0.493l-0.895,15.121 c-0.021,0.356,0.306,0.633,0.654,0.552l4.052-0.935c0.379-0.087,0.722,0.246,0.644,0.628l-1.204,5.895 c-0.081,0.397,0.291,0.736,0.679,0.618l2.503-0.76c0.388-0.118,0.761,0.222,0.679,0.62l-1.913,9.26 c-0.12,0.579,0.651,0.895,0.972,0.398l0.215-0.332l11.86-23.669c0.199-0.396-0.144-0.848-0.579-0.764l-4.171,0.805 c-0.392,0.076-0.725-0.289-0.615-0.673l2.722-9.438C34.301,3.299,33.967,2.933,33.574,3.01z"></path>
</symbol>
<symbol id="icon-webpack" viewBox="0 0 48 48">
<polygon fill="#eceff1" points="24,4 7,14 7,34 24,44 41,34 41,14"/><polygon fill="#0277bd" points="23.5,24.5 23.5,33.5 15,29 15,19.5"/><polygon fill="#0277bd" points="24.5,24.5 24.5,33.5 33,29 33,19.5"/><polygon fill="#0277bd" points="24,23.5 15.5,18.5 24,14 32.5,18.5"/><g><polygon fill="#81d4fa" points="23.5,7 23.5,13 14.5,18 9.5,15"/><polygon fill="#81d4fa" points="23.5,41 23.5,35 14.5,30 9.5,33"/><polygon fill="#81d4fa" points="14,19 9,16 9,32 14,29"/><polygon fill="#81d4fa" points="24.5,7 24.5,13 33.5,18 38.5,15"/><polygon fill="#81d4fa" points="24.5,41 24.5,35 33.5,30 38.5,33"/><polygon fill="#81d4fa" points="34,19 39,16 39,32 34,29"/></g>
</symbol>
<symbol id="icon-mui" viewBox="0 0 48 48">
<polygon fill="#29b6f6" points="1,5 7,9 7,29 1,25"/><polygon fill="#0288d1" points="47,20 41,24 41,37 47,33"/><polygon fill="#0288d1" points="47,6 41,10 41,17 47,13"/><polygon fill="#0288d1" points="35,5 29,9 29,29 35,25"/><polygon fill="#29b6f6" points="1,12 18,23 18,16 1,5"/><polygon fill="#0288d1" points="35,12 18,23 18,16 35,5"/><polygon fill="#0288d1" points="35,26 18,37 18,30 35,19"/><polygon fill="#0288d1" points="47,34 30,45 30,38 47,27"/><polygon fill="#29b6f6" points="30,37.765 18,30 18,37 30,44.765"/>
</symbol>
<symbol id="icon-ts" viewBox="0 0 48 48">
<rect width="36" height="36" x="6" y="6" fill="#1976d2"/>
<polygon fill="#fff" points="27.49,22 14.227,22 14.227,25.264 18.984,25.264 18.984,40 22.753,40 22.753,25.264 27.49,25.264"/>
<path fill="#fff" d="M39.194,26.084c0,0-1.787-1.192-3.807-1.192s-2.747,0.96-2.747,1.986 c0,2.648,7.381,2.383,7.381,7.712c0,8.209-11.254,4.568-11.254,4.568V35.22c0,0,2.152,1.622,4.733,1.622s2.483-1.688,2.483-1.92 c0-2.449-7.315-2.449-7.315-7.878c0-7.381,10.658-4.469,10.658-4.469L39.194,26.084z"/>
</symbol>
<symbol id="icon-cs" viewBox="0 0 48 48">
<path fill="#00c853" d="M22.903,3.286c0.679-0.381,1.515-0.381,2.193,0c3.355,1.883,13.451,7.551,16.807,9.434 C42.582,13.1,43,13.804,43,14.566c0,3.766,0,15.101,0,18.867c0,0.762-0.418,1.466-1.097,1.847 c-3.355,1.883-13.451,7.551-16.807,9.434c-0.679,0.381-1.515,0.381-2.193,0c-3.355-1.883-13.451-7.551-16.807-9.434 C5.418,34.899,5,34.196,5,33.434c0-3.766,0-15.101,0-18.867c0-0.762,0.418-1.466,1.097-1.847 C9.451,10.837,19.549,5.169,22.903,3.286z"/><path fill="#69f0ae" d="M5.304,34.404C5.038,34.048,5,33.71,5,33.255c0-3.744,0-15.014,0-18.759 c0-0.758,0.417-1.458,1.094-1.836c3.343-1.872,13.405-7.507,16.748-9.38c0.677-0.379,1.594-0.371,2.271,0.008 c3.343,1.872,13.371,7.459,16.714,9.331c0.27,0.152,0.476,0.335,0.66,0.576L5.304,34.404z"/><path fill="#fff" d="M24,10c-7.73,0-14,6.27-14,14s6.27,14,14,14s14-6.27,14-14S31.73,10,24,10z M24,31 c-3.86,0-7-3.14-7-7s3.14-7,7-7s7,3.14,7,7S27.86,31,24,31z"/><path fill="#00e676" d="M42.485,13.205c0.516,0.483,0.506,1.211,0.506,1.784c0,3.795-0.032,14.589,0.009,18.384 c0.004,0.396-0.127,0.813-0.323,1.127L23.593,24L42.485,13.205z"/><path fill="#fff" d="M34 20H35V28H34zM37 20H38V28H37z"/><path fill="#fff" d="M32 25H40V26H32zM32 22H40V23H32z"/>
</symbol>
<symbol id="icon-nodejs" viewBox="0 0 48 48">
<path fill="#21a366" d="M24.007,45.419c-0.574,0-1.143-0.15-1.646-0.44l-5.24-3.103c-0.783-0.438-0.401-0.593-0.143-0.682	c1.044-0.365,1.255-0.448,2.369-1.081c0.117-0.067,0.27-0.043,0.39,0.028l4.026,2.389c0.145,0.079,0.352,0.079,0.486,0l15.697-9.061	c0.145-0.083,0.24-0.251,0.24-0.424V14.932c0-0.181-0.094-0.342-0.243-0.432L24.253,5.446c-0.145-0.086-0.338-0.086-0.483,0	L8.082,14.499c-0.152,0.086-0.249,0.255-0.249,0.428v18.114c0,0.173,0.094,0.338,0.244,0.42l4.299,2.483	c2.334,1.167,3.76-0.208,3.76-1.591V16.476c0-0.255,0.2-0.452,0.456-0.452h1.988c0.248,0,0.452,0.196,0.452,0.452v17.886	c0,3.112-1.697,4.9-4.648,4.9c-0.908,0-1.623,0-3.619-0.982l-4.118-2.373C5.629,35.317,5,34.216,5,33.042V14.928	c0-1.179,0.629-2.279,1.646-2.861L22.36,3.002c0.994-0.562,2.314-0.562,3.301,0l15.694,9.069C42.367,12.656,43,13.753,43,14.932	v18.114c0,1.175-0.633,2.271-1.646,2.861L25.66,44.971c-0.503,0.291-1.073,0.44-1.654,0.44"/><path fill="#21a366" d="M28.856,32.937c-6.868,0-8.308-3.153-8.308-5.797c0-0.251,0.203-0.452,0.455-0.452h2.028	c0.224,0,0.413,0.163,0.448,0.384c0.306,2.066,1.218,3.108,5.371,3.108c3.308,0,4.715-0.747,4.715-2.502	c0-1.01-0.401-1.76-5.54-2.263c-4.299-0.424-6.955-1.371-6.955-4.809c0-3.167,2.672-5.053,7.147-5.053	c5.026,0,7.517,1.745,7.831,5.493c0.012,0.13-0.035,0.255-0.122,0.35c-0.086,0.09-0.208,0.145-0.334,0.145h-2.039	c-0.212,0-0.397-0.149-0.44-0.354c-0.491-2.173-1.678-2.868-4.904-2.868c-3.611,0-4.031,1.257-4.031,2.2	c0,1.143,0.495,1.477,5.367,2.122c4.825,0.64,7.116,1.544,7.116,4.935c0,3.418-2.853,5.379-7.827,5.379"/>
</symbol>
<symbol id="icon-mongodb" viewBox="0 0 48 48">
<path fill="#5d4037" d="M42,17.3C42,37.8,24,44,24,44S6,37.8,6,17.3c0-2.5,0.2-4.6,0.4-6.3c0.3-2.5,2-4.5,4.4-5.1 C13.9,5,18.8,4,24,4s10.1,1,13.3,1.9c2.4,0.6,4.1,2.7,4.4,5.1C41.8,12.7,42,14.9,42,17.3z"/><path fill="#4caf50" d="M24,7c4.9,0,9.5,1,12.5,1.8c1.2,0.3,2,1.3,2.2,2.6c0.2,1.9,0.3,3.9,0.3,5.9c0,15.6-11.5,21.9-15,23.4 c-3.5-1.6-15-7.9-15-23.4c0-2,0.1-4,0.3-5.9c0.1-1.3,1-2.3,2.2-2.6C14.5,8,19.1,7,24,7 M24,4c-5.2,0-10.1,1-13.3,1.9 C8.4,6.5,6.6,8.6,6.4,11C6.2,12.7,6,14.9,6,17.3C6,37.8,24,44,24,44s18-6.2,18-26.7c0-2.5-0.2-4.6-0.4-6.3c-0.3-2.5-2-4.5-4.4-5.1 C34.1,5,29.2,4,24,4L24,4z"/><path fill="#dcedc8" d="M23 28H25V36H23z"/><path fill="#4caf50" d="M24,10c0,0-6,5-6,13c0,5.2,3.3,8.5,5,10l1-3l1,3c1.7-1.5,5-4.8,5-10C30,15,24,10,24,10z"/><path fill="#81c784" d="M24,10c0,0-6,5-6,13c0,5.2,3.3,8.5,5,10l1-3V10z"/>
</symbol>
</defs>
</svg>
